<svg xmlns="http://www.w3.org/2000/svg" viewBox="0 0 80 80">
  <rect width="80" height="80" rx="16" fill="#ffffff"/>
  <path fill="#181717" d="M40 18c-12 0-22 10-22 22 0 9.7 6.3 17.9 14.9 20.8 1.1.2 1.5-.5 1.5-1.1v-3.9c-6.1 1.3-7.4-2.6-7.4-2.6-.9-2.3-2.1-2.9-2.1-2.9-1.7-1.2.1-1.2.1-1.2 1.9.1 2.9 2 2.9 2 1.6 2.9 4.2 2.1 5.2 1.6.2-1.2.6-2.1 1.1-2.6-4.9-.6-10-2.4-10-10.7 0-2.4.9-4.4 2.3-6-.2-.6-1-3 .2-6 0 0 1.9-.6 6.1 2.3 1.8-.5 3.7-.8 5.6-.8s3.8.3 5.6.8c4.2-2.9 6.1-2.3 6.1-2.3 1.2 3 .4 5.4.2 6 1.5 1.6 2.3 3.6 2.3 6 0 8.3-5.1 10.1-10 10.7.7.6 1.3 1.8 1.3 3.7v5.5c0 .6.4 1.3 1.5 1.1A22.1 22.1 0 0 0 62 40c0-12-10-22-22-22z"/>
</svg>
