<svg xmlns="http://www.w3.org/2000/svg" viewBox="0 0 80 80">
  <rect width="80" height="80" rx="16" fill="#F7DF1E"/>
  <path fill="#000000" d="M39 18h6v33.4c0 9-4.2 12.6-11.5 12.6-3.2 0-5.8-.7-7.8-1.9l1.8-5.4c1.4.8 3.1 1.4 4.9 1.4 3.4 0 5.6-1.5 5.6-6.4V18zm18.2 34.8c1.6 2.6 3.9 4.5 7.8 4.5 3.3 0 5.5-1.6 5.5-3.9 0-2.7-2.2-3.6-5.9-5.2l-2-0.9c-5.9-2.5-9.8-5.6-9.8-12.3 0-6.1 4.6-10.8 11.8-10.8 5.1 0 8.8 1.8 11.5 6.5l-6.3 4.1c-1.4-2.5-2.9-3.4-5.1-3.4-2.3 0-3.8 1.5-3.8 3.4 0 2.4 1.5 3.3 5.1 4.7l2 0.8c6.8 2.9 10.7 6 10.7 12.8 0 7.3-5.5 11.3-12.9 11.3-7.2 0-11.8-3.5-14.1-8.2l6.5-4.4z"/>
</svg>
